<svg xmlns="http://www.w3.org/2000/svg" xmlns:xlink="http://www.w3.org/1999/xlink" viewBox="0 0 292 65.83"><defs><style>.cls-1{fill:url(#linear-gradient);}.cls-2{fill:url(#linear-gradient-2);}.cls-3{fill:url(#linear-gradient-3);}.cls-4{fill:url(#linear-gradient-4);}.cls-5{fill:url(#linear-gradient-5);}.cls-6{fill:url(#linear-gradient-6);}.cls-7{fill:url(#linear-gradient-7);}.cls-8{fill:url(#linear-gradient-8);}.cls-9{fill:url(#linear-gradient-9);}.cls-10{fill:url(#linear-gradient-10);}.cls-11{fill:url(#linear-gradient-11);}.cls-12{fill:url(#linear-gradient-12);}.cls-13{fill:url(#radial-gradient);}.cls-14{fill:url(#radial-gradient-2);}.cls-15{fill:url(#radial-gradient-3);}.cls-16{fill:url(#radial-gradient-4);}.cls-17{fill:url(#radial-gradient-5);}.cls-18{fill:url(#radial-gradient-6);}.cls-19{fill:url(#radial-gradient-7);}.cls-20{fill:url(#radial-gradient-8);}.cls-21{fill:url(#radial-gradient-9);}.cls-22{fill:url(#radial-gradient-10);}.cls-23{fill:url(#radial-gradient-11);}</style><linearGradient id="linear-gradient" x1="76.66" y1="37.88" x2="87.77" y2="37.88" gradientUnits="userSpaceOnUse"><stop offset="0" stop-color="#00aeef"/><stop offset="0.16" stop-color="#009de1"/><stop offset="0.5" stop-color="#007fc8"/><stop offset="0.79" stop-color="#006db9"/><stop offset="1" stop-color="#0066b3"/></linearGradient><linearGradient id="linear-gradient-2" x1="89.42" y1="41.81" x2="111.73" y2="41.81" xlink:href="#linear-gradient"/><linearGradient id="linear-gradient-3" x1="113.43" y1="41.81" x2="134.42" y2="41.81" xlink:href="#linear-gradient"/><linearGradient id="linear-gradient-4" x1="136.9" y1="34.34" x2="154.81" y2="34.34" xlink:href="#linear-gradient"/><linearGradient id="linear-gradient-5" x1="169.6" y1="37.39" x2="172.62" y2="37.39" xlink:href="#linear-gradient"/><linearGradient id="linear-gradient-6" x1="175.92" y1="34.34" x2="178.94" y2="34.34" xlink:href="#linear-gradient"/><linearGradient id="linear-gradient-7" x1="182.24" y1="34.34" x2="185.26" y2="34.34" xlink:href="#linear-gradient"/><linearGradient id="linear-gradient-8" x1="188.56" y1="42.09" x2="206.47" y2="42.09" xlink:href="#linear-gradient"/><linearGradient id="linear-gradient-9" x1="208.95" y1="41.81" x2="222.24" y2="41.81" xlink:href="#linear-gradient"/><linearGradient id="linear-gradient-10" x1="224.72" y1="37.39" x2="227.74" y2="37.39" xlink:href="#linear-gradient"/><linearGradient id="linear-gradient-11" x1="230.21" y1="41.81" x2="253.95" y2="41.81" xlink:href="#linear-gradient"/><linearGradient id="linear-gradient-12" x1="256.43" y1="41.48" x2="274.34" y2="41.48" xlink:href="#linear-gradient"/><radialGradient id="radial-gradient" cx="29.68" cy="2.34" r="13.41" gradientUnits="userSpaceOnUse"><stop offset="0" stop-color="#00aeef"/><stop offset="0.28" stop-color="#0083ca"/><stop offset="1" stop-color="#0c296e"/></radialGradient><radialGradient id="radial-gradient-2" cx="8.4" cy="9.82" r="7.36" xlink:href="#radial-gradient"/><radialGradient id="radial-gradient-3" cx="17.99" cy="62.36" r="5.39" xlink:href="#radial-gradient"/><radialGradient id="radial-gradient-4" cx="4.73" cy="54.35" r="5.7" xlink:href="#radial-gradient"/><radialGradient id="radial-gradient-5" cx="5.12" cy="30.44" r="15.68" gradientTransform="translate(8.59 -1.19) rotate(13.28)" xlink:href="#radial-gradient"/><radialGradient id="radial-gradient-6" cx="49.45" cy="15.38" r="50.69" xlink:href="#radial-gradient"/><radialGradient id="radial-gradient-7" cx="30.99" cy="65.35" r="0.11" xlink:href="#radial-gradient"/><radialGradient id="radial-gradient-8" cx="27.91" cy="64.57" r="0.07" xlink:href="#radial-gradient"/><radialGradient id="radial-gradient-9" cx="49.68" cy="24.76" r="2.49" xlink:href="#radial-gradient"/><radialGradient id="radial-gradient-10" cx="54.44" cy="19.72" r="3.37" xlink:href="#radial-gradient"/><radialGradient id="radial-gradient-11" cx="56.29" cy="16.44" r="73.62" gradientUnits="userSpaceOnUse"><stop offset="0" stop-color="#00aeef"/><stop offset="0.28" stop-color="#0066b3"/><stop offset="1" stop-color="#19459d"/></radialGradient></defs><g id="Layer_2" data-name="Layer 2"><g id="Layer_1-2" data-name="Layer 1"><path class="cls-1" d="M80.73,33.57H76.66v-3h4.07V24.22l3-1.48v7.8h4v3h-4V53h-3Z"/><path class="cls-2" d="M109.09,45.93l2.64,1.49A11.72,11.72,0,0,1,107.44,52a11.73,11.73,0,0,1-14.51-1.79,11.76,11.76,0,0,1,0-16.76,12,12,0,0,1,18.36,2L96,48.9a8.81,8.81,0,0,0,13.14-3Zm-15.17.83,13.14-11.65a8.8,8.8,0,0,0-14.62,6.7A8.8,8.8,0,0,0,93.92,46.76Z"/><path class="cls-3" d="M134.42,34.23l-2.36,1.87a8.82,8.82,0,0,0-15.61,5.71,8.74,8.74,0,0,0,8.85,8.85,8.36,8.36,0,0,0,6.6-3l2.41,1.87a11.64,11.64,0,0,1-9,4.12,12,12,0,0,1-11.87-11.87A11.34,11.34,0,0,1,117,33.4a11.48,11.48,0,0,1,8.35-3.46,11.77,11.77,0,0,1,5.11,1.1A11.37,11.37,0,0,1,134.42,34.23Z"/><path class="cls-4" d="M151.79,38.9a5.7,5.7,0,0,0-1.73-4.26A5.83,5.83,0,0,0,145.85,33a5.91,5.91,0,0,0-5.93,5.94V53h-3V15.65h3V32.19a8.91,8.91,0,0,1,14.89,6.71V53h-3Z"/><path class="cls-5" d="M169.6,21.75h3v3.3h-3Zm0,8.79h3V53h-3Z"/><path class="cls-6" d="M175.92,53V15.65h3V53Z"/><path class="cls-7" d="M182.24,53V15.65h3V53Z"/><path class="cls-8" d="M206.47,30.54V53l-2.58-2.09a8.48,8.48,0,0,1-6.38,2.7,8.83,8.83,0,0,1-8.95-9V30.54h3V44.67a5.62,5.62,0,0,0,1.78,4.2,5.76,5.76,0,0,0,4.15,1.73,5.56,5.56,0,0,0,4.26-1.78,5.88,5.88,0,0,0,1.68-4.15V30.54Z"/><path class="cls-9" d="M211.58,48.24a3.76,3.76,0,0,0,3.63,2.2,3.95,3.95,0,0,0,4-4,4,4,0,0,0-.79-2.45,3.7,3.7,0,0,0-2-1.4l-2.64-.77a6.23,6.23,0,0,1-3.19-2.17,5.91,5.91,0,0,1,4.73-9.48,5.87,5.87,0,0,1,3.27,1,5.54,5.54,0,0,1,2.17,2.64L218,34.94a2.6,2.6,0,0,0-2.69-1.76,2.77,2.77,0,0,0-2.09.88,2.9,2.9,0,0,0-.82,2,2.66,2.66,0,0,0,2.14,2.8l2.64.77a6.57,6.57,0,0,1,3.65,2.47,7,7,0,0,1-5.63,11.32,6.85,6.85,0,0,1-3.63-1A7.48,7.48,0,0,1,209,49.67Z"/><path class="cls-10" d="M224.72,21.75h3v3.3h-3Zm0,8.79h3V53h-3Z"/><path class="cls-11" d="M242.08,29.94A11.81,11.81,0,0,1,254,41.81a11.47,11.47,0,0,1-3.46,8.35,11.9,11.9,0,0,1-20.28-8.35,11.34,11.34,0,0,1,3.52-8.41A11.48,11.48,0,0,1,242.08,29.94Zm0,3a8.74,8.74,0,0,0-8.85,8.85,8.85,8.85,0,1,0,15.12-6.26A8.51,8.51,0,0,0,242.08,33Z"/><path class="cls-12" d="M256.43,53V30.54L259,32.63a8.5,8.5,0,0,1,6.38-2.69,8.81,8.81,0,0,1,8.95,9V53h-3V38.9a5.7,5.7,0,0,0-1.73-4.26,5.81,5.81,0,0,0-4.2-1.68,5.91,5.91,0,0,0-5.94,5.94V53Z"/><path d="M280.79,53.68a2.8,2.8,0,0,1-2-.72,3.08,3.08,0,0,1-1-1.87,9,9,0,0,1-.08-1.23c0-.47,0-1,.08-1.5A4.12,4.12,0,0,1,279,45.93a3.42,3.42,0,0,1,2.45-1,3.33,3.33,0,0,1,1.63.42,3.37,3.37,0,0,1,1.23,1.17,3.62,3.62,0,0,1,1.38-1.74,3.79,3.79,0,0,1,2.19-.65,3.69,3.69,0,0,1,2.66,1,4.48,4.48,0,0,1,1.34,2.56,7.6,7.6,0,0,1,.1,1.4v4.56Zm2.93-4a4.44,4.44,0,0,0-.06-.88,2.14,2.14,0,0,0-.74-1.34,2.07,2.07,0,0,0-1.41-.51,1.88,1.88,0,0,0-1.34.48,2.1,2.1,0,0,0-.61,1.33,14.41,14.41,0,0,0-.08,1.55,1.53,1.53,0,0,0,.33,1,1.26,1.26,0,0,0,1,.38h2.91Zm6.55-.72a3,3,0,0,0-.65-2.12,2.52,2.52,0,0,0-3.54.12,3.61,3.61,0,0,0-.65,2.33v2.44h4.84Z"/><path d="M280.79,42.68a3,3,0,0,1-1.39-.31,2.49,2.49,0,0,1-.95-.8,4.52,4.52,0,0,1-.54-1.13,5,5,0,0,1-.17-1.31v-.86a7.49,7.49,0,0,1,.39-2.5,6.15,6.15,0,0,1,1.07-2,6.55,6.55,0,0,1,1.59-1.37,7,7,0,0,1,2-.85,9.16,9.16,0,0,1,2.18-.26,9.64,9.64,0,0,1,2.18.25,6.57,6.57,0,0,1,1.92.81,6.17,6.17,0,0,1,1.55,1.32,5.42,5.42,0,0,1,1,1.86A7.29,7.29,0,0,1,292,38v4.73Zm9.44-4.51a6.5,6.5,0,0,0,0-1,4,4,0,0,0-1.62-2.86,5.8,5.8,0,0,0-3.63-1.06,6.78,6.78,0,0,0-2,.3,5.65,5.65,0,0,0-1.72.9A4.34,4.34,0,0,0,280,36.05a5.21,5.21,0,0,0-.45,2.2v.86a1.91,1.91,0,0,0,.31,1.18,1.14,1.14,0,0,0,1,.41h9.4Z"/><path class="cls-13" d="M27.31,13.54a6.77,6.77,0,1,1,6.77-6.77A6.78,6.78,0,0,1,27.31,13.54Z"/><path class="cls-14" d="M9.4,17.41a5.32,5.32,0,1,1,5.32-5.32A5.32,5.32,0,0,1,9.4,17.41Z"/><path class="cls-15" d="M18.59,63.83a3.53,3.53,0,1,1,3.52-3.53A3.53,3.53,0,0,1,18.59,63.83Z"/><path class="cls-16" d="M6.8,56.77a3.53,3.53,0,1,1,3.53-3.53A3.53,3.53,0,0,1,6.8,56.77Z"/><circle class="cls-17" cx="9.4" cy="36.3" r="9.4" transform="translate(-8.09 3.13) rotate(-13.28)"/><path class="cls-18" d="M40.23,7.06a4.41,4.41,0,0,0-4.72,2.82A8.77,8.77,0,0,1,23.56,14.7a7,7,0,0,0-8.63,1.9l-.14.18a7.28,7.28,0,0,0,1.36,10.33A11.4,11.4,0,0,1,14,46.73a4.34,4.34,0,0,0-1.95,6.15.75.75,0,0,0,.07.12,4.39,4.39,0,0,0,5,2,5.66,5.66,0,0,1,2.33-.14A5.53,5.53,0,0,1,24,59.36v.07a6.83,6.83,0,0,0,2.52,4.37c.08-.48.16-.95.23-1.43,2.45-15.29,4.79-30,5.23-32.61a11.58,11.58,0,0,1,6.43-8.69,10.07,10.07,0,0,1,4.74-1.16c1.1,0,2.21,0,3.31,0h3.85a1.08,1.08,0,0,0,.93-.41,4,4,0,0,1,1.61-1.24,2.8,2.8,0,0,1,3.09.42,2.57,2.57,0,0,1,.66,2.87,3.65,3.65,0,0,1-4.95,2.3,2.23,2.23,0,0,1-.92-1,.73.73,0,0,0-.72-.42c-3,0-6,0-9,0a6.28,6.28,0,0,0-6,4.85c-.71,2.4-3.59,19.89-6.24,36.48-.07.37-.12.73-.18,1.09a.76.76,0,0,0,.16.06c.49.12,1,.22,1.49.32.06-.35.11-.69.16-1C33.05,48,35.75,31.46,36.33,29.05a7,7,0,0,1,2.3-3.65,4.48,4.48,0,0,1,3-.8c1.6,0,3.21,0,4.81,0a1.42,1.42,0,0,0,1.12-.45,2.62,2.62,0,0,1,2-.79,1.92,1.92,0,0,1,2,2,3,3,0,0,1-3,2.85A1.91,1.91,0,0,1,47,27.39a.94.94,0,0,0-.87-.4c-1.28,0-2.57,0-3.85,0a3.73,3.73,0,0,0-3.85,3.25c-.47,2.63-.91,5.25-1.37,7.88-.14.79-2.11,13.26-4.2,26.49,0,.34-.1.68-.16,1a30.65,30.65,0,0,0,4.81.17A29.53,29.53,0,0,0,40.23,7.06Zm-2.87,13.3a10.93,10.93,0,0,0-5.18,5.32c-.16.4-.49.35-.81.35H21.93c-.16,0-.32,0-.48,0-.45,0-.61-.16-.52-.62.31-1.68.61-3.35.88-5,.09-.54.41-.59.85-.59h14.8c.19,0,.4-.07.61.15C37.82,20.09,37.6,20.23,37.36,20.36Z"/><path class="cls-19" d="M31.09,65.4l-.35-.06Z"/><path class="cls-20" d="M28,64.63l-.15-.07Z"/><path class="cls-21" d="M50.55,25.53a1.12,1.12,0,0,0-1.21-1.18A1.72,1.72,0,0,0,47.64,26a1.17,1.17,0,0,0,1.21,1.25A1.76,1.76,0,0,0,50.55,25.53Z"/><path class="cls-22" d="M53.31,23a2.32,2.32,0,0,0,2.31-2.27A1.45,1.45,0,0,0,54,19.17a2.37,2.37,0,0,0-2.31,2.28A1.56,1.56,0,0,0,53.31,23Z"/><path class="cls-23" d="M65.57,38.18a29.64,29.64,0,0,1-28,27.62,30.66,30.66,0,0,1-4.81-.16c-.82-.09-1.64-.22-2.43-.38-.5-.1-1-.21-1.49-.34l-.16,0a6,6,0,0,1-2.08-1.06,6.81,6.81,0,0,1-2.52-4.38s0,0,0-.07a5.53,5.53,0,0,0-4.6-4.54,5.66,5.66,0,0,0-2.33.14,4.41,4.41,0,0,1-5-2l-.06-.12A4.33,4.33,0,0,1,14,46.73a11.4,11.4,0,0,0,2.14-19.62,7.29,7.29,0,0,1-1.35-10.33l.14-.18a7.05,7.05,0,0,1,8.63-1.9,8.79,8.79,0,0,0,12-4.82,4.41,4.41,0,0,1,4.71-2.83,29.54,29.54,0,0,1,25.4,29.83c.24-14.46-11.11-26.82-25.34-28.83l-.45,0a3.38,3.38,0,0,0-3.14,2.22,9.78,9.78,0,0,1-9.08,6.31,9.58,9.58,0,0,1-4.15-.94A6.3,6.3,0,0,0,20.75,15a5.85,5.85,0,0,0-4.63,2.25L16,17.4a6.34,6.34,0,0,0-1.27,4.77,6.13,6.13,0,0,0,2.42,4.13,12.46,12.46,0,0,1-2.32,21.36,3.18,3.18,0,0,0-1.76,2,3.36,3.36,0,0,0,.29,2.73l.06.11a3.28,3.28,0,0,0,2.88,1.64,3.4,3.4,0,0,0,.95-.13A6.68,6.68,0,0,1,19,53.76a6.42,6.42,0,0,1,6.39,5.44l0,.08a6,6,0,0,0,1.42,3.09,5.19,5.19,0,0,0,2,1.4,3.16,3.16,0,0,0,.52.17c.37.1.74.18,1.11.26.78.17,1.56.3,2.35.4h.08a28.4,28.4,0,0,0,3.45.21q.69,0,1.38,0C52,64.11,64.63,52.51,65.57,38.18Z"/></g></g></svg>